<svg xmlns="http://www.w3.org/2000/svg" xmlns:xlink="http://www.w3.org/1999/xlink"><symbol id="all_inclusive" viewBox="0 0 48 48"><path d="M10.6 35q-4.5 0-7.55-3.275T0 23.9q0-4.5 3.075-7.7T10.6 13q1.8 0 3.475.6t2.975 1.85l4.65 4.5-2.1 2.1-4.45-4.35q-.9-.9-2.075-1.3Q11.9 16 10.6 16q-3.2 0-5.4 2.325T3 23.9q0 3.3 2.2 5.7Q7.4 32 10.6 32q1.25 0 2.425-.4 1.175-.4 2.125-1.25l15.8-14.9q1.3-1.25 2.975-1.85Q35.6 13 37.35 13q4.45 0 7.55 3.2 3.1 3.2 3.1 7.7 0 4.55-3.075 7.825Q41.85 35 37.35 35q-1.75 0-3.45-.575-1.7-.575-2.95-1.825l-4.55-4.5 2.1-2.1 4.35 4.35q.85.85 2.05 1.25 1.2.4 2.45.4 3.25 0 5.45-2.4t2.2-5.7q0-3.25-2.225-5.575T37.35 16q-1.25 0-2.425.45-1.175.45-2.075 1.3l-15.8 14.9q-1.3 1.2-3 1.775T10.6 35Z"/></symbol><symbol id="anchor" viewBox="0 0 48 48"><path d="M24 44q-3.3 0-6.525-1.2-3.225-1.2-5.775-3.15-2.55-1.95-4.125-4.4Q6 32.8 6 30.25v-5l6.75 5.05-2.9 2.9q1.55 2.9 5.3 5.175T22.5 40.9V21.5H16v-3h6.5v-3.7q-1.9-.7-2.95-2.1-1.05-1.4-1.05-3.2 0-2.3 1.625-3.9T24 4q2.3 0 3.9 1.6t1.6 3.9q0 1.8-1.05 3.2-1.05 1.4-2.95 2.1v3.7H32v3h-6.5v19.4q3.6-.25 7.35-2.525 3.75-2.275 5.3-5.175l-2.9-2.9L42 25.25v5q0 2.55-1.575 5t-4.125 4.4q-2.55 1.95-5.775 3.15Q27.3 44 24 44Zm0-32q1.05 0 1.775-.75.725-.75.725-1.75 0-1.05-.725-1.775Q25.05 7 24 7q-1 0-1.75.725T21.5 9.5q0 1 .75 1.75T24 12Z"/></symbol><symbol id="bedtime" viewBox="0 0 48 48"><path d="M24 41q2.8 0 5.8-1.15t5.7-3.4q-4.9-1.7-8.45-4.575-3.55-2.875-5.625-6.65-2.075-3.775-2.65-8.25-.575-4.475.475-9.325-5.55 2.05-8.9 6.325Q7 18.25 7 24q0 7.2 4.9 12.1Q16.8 41 24 41Zm0 3q-4.2 0-7.85-1.55Q12.5 40.9 9.8 38.2q-2.7-2.7-4.25-6.35Q4 28.2 4 24q0-4 1.55-7.625T9.8 10q2.7-2.75 6.3-4.375Q19.7 4 23.8 4q-2.45 4.75-2.3 10.025.15 5.275 2.55 9.7 2.4 4.425 6.8 7.4 4.4 2.975 10.45 3.125-2.6 4.1-7.35 6.925T24 44Zm-2.75-19.7Z"/></symbol><symbol id="bus" viewBox="0 0 48 48"><path d="M12.45 42q-.65 0-1.15-.375-.5-.375-.5-.975v-4.2q-1.45-.8-2.125-2.3Q8 32.65 8 30.95V11.1q0-3.7 3.825-5.4Q15.65 4 24.05 4q8.3 0 12.125 1.7Q40 7.4 40 11.1v19.85q0 1.7-.675 3.2-.675 1.5-2.125 2.3v4.2q0 .6-.5.975T35.55 42h-.95q-.7 0-1.2-.375t-.5-.975V37.9H15.1v2.75q0 .6-.5.975T13.4 42Zm11.6-32.2H37 11h13.05Zm8.85 14.65H11h26-4.1Zm-21.9-3h26V12.8H11Zm5.3 10.95q1.15 0 1.95-.8t.8-1.95q0-1.15-.8-1.95t-1.95-.8q-1.15 0-1.95.8t-.8 1.95q0 1.15.8 1.95t1.95.8Zm15.4 0q1.15 0 1.95-.8t.8-1.95q0-1.15-.8-1.95t-1.95-.8q-1.15 0-1.95.8t-.8 1.95q0 1.15.8 1.95t1.95.8ZM11 9.8h26q-1.2-1.3-4.6-2.05Q29 7 24.05 7q-5.9 0-9.05.675-3.15.675-4 2.125Zm4.1 25.1h17.8q1.75 0 2.925-1.35Q37 32.2 37 30.45v-6H11v6q0 1.75 1.175 3.1T15.1 34.9Z"/></symbol><symbol id="castle" viewBox="0 0 48 48"><path d="M2 42V18.5h3v4h5.5V6h3v4h5V6h3v4h5V6h3v4h5V6h3v16.5H43v-4h3V42H28.5v-6q0-1.9-1.3-3.2-1.3-1.3-3.15-1.3-1.9 0-3.225 1.3Q19.5 34.1 19.5 36v6Zm3-3h11.5v-3q0-3.15 2.2-5.325Q20.9 28.5 24 28.5q3.15 0 5.325 2.175Q31.5 32.85 31.5 36v3H43V25.5h-8.5V13h-21v12.5H5Zm13.5-15.5h3V18h-3Zm8 0h3V18h-3ZM24 26Z"/></symbol><symbol id="category" viewBox="0 0 48 48"><path d="m13.05 21.7 11-17.7 11 17.7ZM35.3 44q-3.7 0-6.2-2.5t-2.5-6.2q0-3.7 2.5-6.2t6.2-2.5q3.7 0 6.2 2.5t2.5 6.2q0 3.7-2.5 6.2T35.3 44ZM6 42.75v-15.2h15.2v15.2ZM35.3 41q2.4 0 4.05-1.65T41 35.3q0-2.4-1.65-4.05T35.3 29.6q-2.4 0-4.05 1.65T29.6 35.3q0 2.4 1.65 4.05T35.3 41ZM9 39.75h9.2v-9.2H9Zm9.45-21.05h11.2l-5.6-9.05Zm5.6 0ZM18.2 30.55Zm17.1 4.75Z"/></symbol><symbol id="component" viewBox="0 0 48 48"><path d="M20.15 4h3.7l.3 2.45.7.35q.3.15.55.35l2.3-.95 1.85 3.2-1.95 1.45v1.45l1.95 1.5L27.7 17l-2.3-.95q-.3.2-.625.4t-.625.35l-.3 2.4h-3.7l-.25-2.4q-.3-.2-.6-.375t-.6-.375l-.1.05v13.95l-1.1-1.95-1.1.5v-12l-1.9-2.8 1.9-1.45V10.9l-1.95-1.5 1.85-3.2 2.3.95q.3-.2.625-.4t.625-.35ZM22 15q1.4 0 2.4-1t1-2.4q0-1.4-1-2.4t-2.4-1q-1.4 0-2.4 1t-1 2.4q0 1.4 1 2.4t2.4 1Zm12.65 27-.3-2.45-.7-.35q-.3-.15-.55-.35l-2.3.95-1.85-3.2 1.95-1.45V33.7l-1.95-1.45L30.8 29l2.3.95q.2-.2.4-.375t.55-.325l.15-.6-11.75-8.75h2l.15-1.15 10.8 8.05h2.95l.3 2.45.7.35q.3.15.55.35l2.3-.95 1.85 3.2-1.95 1.45v1.45l1.95 1.5-1.85 3.2-2.3-.95q-.3.2-.625.4t-.625.35l-.3 2.4Zm1.85-4.2q1.4 0 2.4-1t1-2.4q0-1.4-1-2.4t-2.4-1q-1.4 0-2.4 1t-1 2.4q0 1.4 1 2.4t2.4 1ZM9.65 42l-.3-2.45-.7-.35q-.3-.15-.55-.35l-2.3.95-1.85-3.2 1.95-1.45V33.7l-1.95-1.5L5.8 29l2.3.95q.3-.2.625-.4t.625-.35l.3-2.4h3.7l.3 2.45.7.35q.3.15.55.35l2.3-.95 1.85 3.2-1.95 1.45q.1.4.05.925t-.2.775q.1.1.15.1.05 0 .15.1L29.95 29l-1.9 3.45-9.45 4.85-1.4 2.5-2.3-.95q-.3.2-.625.4t-.625.35l-.3 2.4Zm1.85-4.2q1.4 0 2.4-1t1-2.4q0-1.4-1-2.4t-2.4-1q-1.4 0-2.4 1t-1 2.4q0 1.4 1 2.4t2.4 1Z"/></symbol><symbol id="coronavirus" viewBox="0 0 48 48"><path d="M17 25.5q.65 0 1.075-.45.425-.45.425-1.05 0-.6-.425-1.05-.425-.45-1.075-.45-.6 0-1.05.45-.45.45-.45 1.05 0 .6.45 1.05.45.45 1.05.45Zm10.5-6q.65 0 1.075-.45Q29 18.6 29 18q0-.6-.425-1.05-.425-.45-1.075-.45-.6 0-1.05.45Q26 17.4 26 18q0 .6.45 1.05.45.45 1.05.45Zm-7 0q.6 0 1.05-.45Q22 18.6 22 18q0-.6-.45-1.05-.45-.45-1.05-.45-.6 0-1.05.45Q19 17.4 19 18q0 .6.45 1.05.45.45 1.05.45Zm0 12q.6 0 1.05-.45Q22 30.6 22 30q0-.6-.45-1.05-.45-.45-1.05-.45-.6 0-1.05.45Q19 29.4 19 30q0 .6.45 1.05.45.45 1.05.45Zm2 12.5q-.4 0-.7-.3-.3-.3-.3-.7 0-.4.3-.7.3-.3.7-.3h.5v-4.55q-2.25-.25-4.25-1.075t-3.6-2.175l-3.2 3.2.4.4q.25.25.325.625.075.375-.325.775-.3.3-.7.3-.4 0-.7-.3L8.8 37.1q-.3-.3-.3-.7 0-.4.3-.75.3-.3.675-.3.375 0 .775.35l.3.3 3.2-3.2q-1.3-1.65-2.125-3.6-.825-1.95-1.075-4.2H6v.5q0 .4-.3.7-.3.3-.7.3-.4 0-.7-.3-.3-.3-.3-.7v-3q0-.4.3-.7.3-.3.7-.3.4 0 .7.3.3.3.3.7v.5h4.55q.25-2.25 1.075-4.2.825-1.95 2.125-3.6l-3.2-3.2-.35.35q-.3.3-.7.3-.4 0-.7-.3-.3-.3-.3-.725t.3-.725l2.1-2.1q.3-.3.725-.3t.725.3q.3.25.3.675 0 .425-.3.675l-.4.4 3.2 3.2q1.65-1.3 3.6-2.125 1.95-.825 4.2-1.075V6h-.45q-.4 0-.7-.3-.3-.3-.3-.7 0-.4.3-.7.3-.3.7-.3h3q.4 0 .7.3.3.3.3.7 0 .4-.3.7-.3.3-.7.3H25v4.55q2.25.25 4.2 1.075 1.95.825 3.6 2.125l3.2-3.2-.3-.3q-.35-.3-.375-.7-.025-.4.325-.75.3-.3.7-.3.4 0 .7.3l2.2 2.2q.3.3.275.675-.025.375-.325.675-.3.3-.7.25-.4-.05-.75-.35l-.3-.3-3.2 3.2q1.3 1.65 2.125 3.625T37.45 23H42v-.5q0-.4.3-.7.3-.3.7-.3.4 0 .7.3.3.3.3.7v3q0 .4-.3.7-.3.3-.7.3-.4 0-.7-.3-.3-.3-.3-.7V25h-4.55q-.25 2.25-1.075 4.225-.825 1.975-2.125 3.625l3.2 3.2.35-.35q.3-.3.7-.325.4-.025.7.275.3.3.3.725t-.3.725l-2.1 2.1q-.3.3-.725.3t-.725-.3q-.35-.35-.3-.725.05-.375.25-.625l.4-.4-3.2-3.2q-1.65 1.3-3.6 2.15-1.95.85-4.2 1.1V42h.5q.4 0 .7.3.3.3.3.7 0 .4-.3.7-.3.3-.7.3Zm1.5-9.5q4.4 0 7.45-3.075T34.5 24q0-4.4-3.05-7.45T24 13.5q-4.35 0-7.425 3.05T13.5 24q0 4.35 3.075 7.425T24 34.5Zm0-9q.6 0 1.05-.45.45-.45.45-1.05 0-.6-.45-1.05-.45-.45-1.05-.45-.6 0-1.05.45-.45.45-.45 1.05 0 .6.45 1.05.45.45 1.05.45Zm7 0q.65 0 1.075-.45.425-.45.425-1.05 0-.6-.425-1.05-.425-.45-1.075-.45-.6 0-1.05.45-.45.45-.45 1.05 0 .6.45 1.05.45.45 1.05.45Zm-3.5 6q.65 0 1.075-.45Q29 30.6 29 30q0-.6-.425-1.05-.425-.45-1.075-.45-.6 0-1.05.45Q26 29.4 26 30q0 .6.45 1.05.45.45 1.05.45ZM24 24Z"/></symbol><symbol id="diamond" viewBox="0 0 48 48"><path d="M24 42 4 18l6-12h28l6 12Zm-5.6-25.5h11.2L25.85 9h-3.7Zm4.1 19.05V19.5H9.15Zm3 0L38.85 19.5H25.5Zm7.45-19.05h6.8L36 9h-6.8Zm-24.7 0h6.8L18.8 9H12Z"/></symbol><symbol id="eco" viewBox="0 0 48 48"><path d="M10.65 39.25q-2.2-2.25-3.425-5.2Q6 31.1 6 28q0-3.65 1.275-6.675T11.1 15.75q1.75-1.75 4.35-2.95 2.6-1.2 6.125-1.875t7.975-.85q4.45-.175 9.9.175.4 5.4.275 9.875t-.8 8.025q-.675 3.55-1.9 6.225Q35.8 37.05 34 38.85q-2.55 2.55-5.5 3.85-2.95 1.3-6.3 1.3-3.45 0-6.325-1.175T10.65 39.25Zm5.15 0q1.25.85 2.9 1.3 1.65.45 3.5.45 2.65 0 5.15-1.1 2.5-1.1 4.55-3.2 1.35-1.35 2.3-3.525.95-2.175 1.55-5.15.6-2.975.8-6.725.2-3.75 0-8.25-4.7-.1-8.425.125Q24.4 13.4 21.55 14t-4.9 1.525q-2.05.925-3.35 2.275-2.1 2.15-3.2 4.55T9 27.25q0 2.4 1.025 5.025Q11.05 34.9 12.55 36.5q2.65-4.9 6.35-8.8 3.7-3.9 7.85-6.15-4.35 3.75-7.05 8.125t-3.9 9.575Zm0 0Zm0 0Z"/></symbol><symbol id="fingerprint" viewBox="0 0 48 48"><path d="M24.05 4q3.25 0 6.375.8T36.4 7.05q.25.1.275.3.025.2-.075.35-.1.15-.275.25-.175.1-.425 0-2.7-1.4-5.725-2.15-3.025-.75-6.125-.75T18 5.775q-2.95.725-5.65 2.175-.25.1-.375.025-.125-.075-.225-.225-.1-.1-.1-.3 0-.2.15-.3 2.85-1.5 5.975-2.325Q20.9 4 24.05 4Zm0 5.05q5.4 0 10.175 2.3t7.925 6.6q.15.25.125.4-.025.15-.175.3t-.375.15q-.225 0-.425-.25-2.95-4.1-7.525-6.3t-9.725-2.2q-5.15 0-9.65 2.225T6.9 18.55q-.2.25-.375.3-.175.05-.375-.05t-.2-.325q0-.225.1-.425 3.1-4.3 7.85-6.65 4.75-2.35 10.15-2.35Zm0 9.85q4.6 0 7.925 3.05t3.325 7.5q0 .25-.125.375t-.375.125q-.25 0-.4-.125-.15-.125-.15-.375 0-4.05-3.025-6.8T24.05 19.9q-4.15 0-7.125 2.75-2.975 2.75-2.975 6.8 0 4.25 1.475 7.25t4.375 6q.2.2.175.375-.025.175-.175.325-.1.1-.3.15-.2.05-.45-.15-2.85-3.05-4.5-6.325Q12.9 33.8 12.9 29.45q0-4.45 3.275-7.5t7.875-3.05Zm-.05 10q.25 0 .375.15t.125.4q0 4.05 2.975 6.675t6.875 2.625q.4 0 .95-.05.55-.05 1.2-.15.25-.05.4.075.15.125.2.275.05.2-.025.35-.075.15-.325.2-.9.25-1.575.275-.675.025-.825.025-4.4 0-7.625-2.925Q23.5 33.9 23.5 29.45q0-.25.125-.4.125-.15.375-.15Zm.05-5q2.4 0 4.125 1.6t1.725 3.95q0 1.9 1.475 3.2 1.475 1.3 3.425 1.3 1.9 0 3.325-1.3 1.425-1.3 1.425-3.2 0-6.15-4.575-10.3T24.05 15q-6.35 0-10.925 4.15Q8.55 23.3 8.55 29.45q0 1.2.275 3.125T10 36.95q.1.25 0 .375t-.25.225q-.2.1-.425.05-.225-.05-.325-.3-.65-1.9-1.025-3.875Q7.6 31.45 7.6 29.45q0-6.45 4.9-11.025t11.55-4.575q6.8 0 11.675 4.5 4.875 4.5 4.875 11.1 0 2.3-1.7 3.9t-4.1 1.6q-2.45 0-4.2-1.6t-1.75-3.9q0-1.95-1.425-3.25t-3.375-1.3q-1.95 0-3.4 1.3t-1.45 3.25q0 5.2 3.15 8.675Q25.5 41.6 30.2 43q.3.1.375.25.075.15.025.35-.05.25-.2.325-.15.075-.4.025-5.15-1.35-8.475-5.175Q18.2 34.95 18.2 29.45q0-2.35 1.725-3.95t4.125-1.6Z"/></symbol><symbol id="gas_station" viewBox="0 0 48 48"><path d="M8 42V9q0-1.2.9-2.1Q9.8 6 11 6h13.45q1.2 0 2.1.9.9.9.9 2.1v14.4h3.25q1.05 0 1.775.725.725.725.725 1.775v10.95q0 1.1.775 1.825.775.725 1.875.725t1.875-.725q.775-.725.775-1.825V22.1q-.55.3-1.15.45-.6.15-1.2.15-1.95 0-3.325-1.375Q31.45 19.95 31.45 18q0-1.6.9-2.85t2.4-1.65L30 8.75 31.8 7l7.65 7.65q.7.7 1.125 1.525Q41 17 41 18v18.85q0 2.15-1.5 3.65T35.85 42q-2.15 0-3.65-1.5t-1.5-3.65V25.9h-3.25V42Zm3-21.6h13.45V9H11Zm25.15-.2q.9 0 1.55-.65t.65-1.55q0-.9-.65-1.55t-1.55-.65q-.9 0-1.55.65T33.95 18q0 .9.65 1.55t1.55.65ZM11 39h13.45V23.4H11Zm13.45 0H11h13.45Z"/></symbol><symbol id="heart" viewBox="0 0 48 48"><path d="m24 41.95-2.05-1.85q-8.15-7.45-13.05-13T4 15.85q0-4.5 3.025-7.525Q10.05 5.3 14.5 5.3q2.55 0 5.05 1.225T24 10.55q2.2-2.8 4.55-4.025Q30.9 5.3 33.5 5.3q4.45 0 7.475 3.025Q44 11.35 44 15.85q0 5.7-4.9 11.25t-13.05 13Zm0-18.8ZM24 38q7.6-7 12.3-12.15 4.7-5.15 4.7-10 0-3.3-2.125-5.425T33.5 8.3q-2.5 0-4.7 1.55t-3.6 4.45h-2.45q-1.35-2.9-3.575-4.45Q16.95 8.3 14.5 8.3q-3.3 0-5.4 2.125Q7 12.55 7 15.85q0 4.85 4.7 10T24 38Z"/></symbol><symbol id="hourglass_empty" viewBox="0 0 48 48"><path d="M15.8 41h16.4v-6.35q0-3.5-2.375-6.025Q27.45 26.1 24 26.1t-5.825 2.525Q15.8 31.15 15.8 34.65ZM24 21.9q3.45 0 5.825-2.525T32.2 13.3V7H15.8v6.3q0 3.55 2.375 6.075Q20.55 21.9 24 21.9ZM8 44v-3h4.8v-6.35q0-3.5 1.825-6.425T19.7 24q-3.25-1.3-5.075-4.25Q12.8 16.8 12.8 13.3V7H8V4h32v3h-4.8v6.3q0 3.5-1.85 6.45T28.3 24q3.25 1.3 5.075 4.225Q35.2 31.15 35.2 34.65V41H40v3Z"/></symbol><symbol id="key" viewBox="0 0 48 48"><path d="M14 27.4q-1.4 0-2.4-1t-1-2.4q0-1.4 1-2.4t2.4-1q1.4 0 2.4 1t1 2.4q0 1.4-1 2.4t-2.4 1Zm0 8.6q-5 0-8.5-3.5T2 24q0-5 3.5-8.5T14 12q3.6 0 6.3 1.7 2.7 1.7 4.25 5.15h17.8L48 24.5l-8.35 7.65-4.4-3.2-4.4 3.2-3.75-3h-2.55q-1.25 3-3.925 4.925Q17.95 36 14 36Zm0-3q2.9 0 5.35-1.925 2.45-1.925 3.15-4.925h5.7l2.7 2.25 4.4-3.15 4.1 3.1 4.25-3.95-2.55-2.55H22.5q-.6-2.8-3-4.825Q17.1 15 14 15q-3.75 0-6.375 2.625T5 24q0 3.75 2.625 6.375T14 33Z"/></symbol><symbol id="lock" viewBox="0 0 48 48"><path d="M24 2q3.95 0 6.725 2.775Q33.5 7.55 33.5 11.5v4.8H37q1.25 0 2.125.875T40 19.3V41q0 1.25-.875 2.125T37 44H11q-1.25 0-2.125-.875T8 41V19.3q0-1.25.875-2.125T11 16.3h3.5v-4.8q0-3.95 2.775-6.725Q20.05 2 24 2Zm0 3q-2.7 0-4.6 1.9-1.9 1.9-1.9 4.6v4.8h13v-4.8q0-2.7-1.9-4.6Q26.7 5 24 5ZM11 41h26V19.3H11V41Zm13-14.7q-1.6 0-2.725 1.225T20.15 30.25q0 1.55 1.125 2.65Q22.4 34 24 34t2.725-1.1q1.125-1.1 1.125-2.65 0-1.5-1.125-2.725T24 26.3Zm-13-7V41 19.3Z"/></symbol><symbol id="money" viewBox="0 0 48 48"><path d="M22.55 42v-4.2q-2.85-.5-4.675-2.175Q16.05 33.95 15.25 31.4l2.8-1.15q.85 2.4 2.45 3.575Q22.1 35 24.35 35q2.4 0 3.95-1.2 1.55-1.2 1.55-3.3 0-2.2-1.375-3.4-1.375-1.2-5.175-2.45-3.6-1.15-5.375-3.05t-1.775-4.75q0-2.75 1.775-4.6 1.775-1.85 4.625-2.1V6h3v4.15q2.25.25 3.875 1.475T31.9 14.75l-2.8 1.2q-.7-1.6-1.875-2.325-1.175-.725-3.075-.725-2.3 0-3.65 1.05t-1.35 2.85q0 1.9 1.5 3.075 1.5 1.175 5.55 2.425 3.4 1.05 5.025 3.025Q32.85 27.3 32.85 30.3q0 3.15-1.85 5.075-1.85 1.925-5.45 2.475V42Z"/></symbol><symbol id="music_note" viewBox="0 0 48 48"><path d="M19.65 42q-3.15 0-5.325-2.175Q12.15 37.65 12.15 34.5q0-3.15 2.175-5.325Q16.5 27 19.65 27q1.4 0 2.525.4t1.975 1.1V6h11.7v6.75h-8.7V34.5q0 3.15-2.175 5.325Q22.8 42 19.65 42Z"/></symbol><symbol id="pan_tool" viewBox="0 0 48 48"><path d="M23.05 48h13.4q3.15 0 5.35-2.175Q44 43.65 44 40.5V12.45q0-1.75-1.25-3t-3-1.25q-.55 0-1.075.1-.525.1-.925.45v-2.3q0-1.9-1.225-3.25T33.5 1.85q-.65 0-1.25.175T31.1 2.6q-.45-1.2-1.475-1.9Q28.6 0 27.3 0q-1.75 0-3.025 1.25T23 4.25v1.3q-.4-.35-.925-.5Q21.55 4.9 21 4.9q-1.75 0-3 1.25t-1.25 3v21.8l-7.9-4.45q-.85-.45-1.75-.175t-1.6.925L2 30.3l14.85 15.4q1.2 1.25 2.825 1.775Q21.3 48 23.05 48Zm0-3q-1.05 0-2.075-.2-1.025-.2-1.725-.9L6.5 30.65l1.35-1.25 11.9 6.45V9.15q0-.55.35-.9t.9-.35q.55 0 .9.35t.35.9V24H26V4.25q0-.55.35-.9t.9-.35q.55 0 .9.35t.35.9V24h3.75V6.1q0-.55.35-.9t.9-.35q.55 0 .9.35t.35.9V24h3.75V12.45q0-.55.35-.9t.9-.35q.55 0 .9.35t.35.9V40.5q0 1.9-1.325 3.2Q38.35 45 36.45 45h-6.7Z"/></symbol><symbol id="park" viewBox="0 0 48 48"><path d="M26.9 44h-5.75v-7.45H6l9.45-13.7H10.7L24 4l13.3 18.85h-4.7l9.4 13.7H26.9ZM11.8 33.55h9.45-4.5 14.5-4.45 9.45Zm0 0h24.45l-9.45-13.7h4.45L24 9.55l-7.25 10.3h4.5Z"/></symbol><symbol id="pets" viewBox="0 0 48 48"><path d="M8.5 23.75q-1.9 0-3.2-1.3-1.3-1.3-1.3-3.2 0-1.9 1.3-3.2 1.3-1.3 3.2-1.3 1.9 0 3.2 1.3 1.3 1.3 1.3 3.2 0 1.9-1.3 3.2-1.3 1.3-3.2 1.3Zm9.25-8.5q-1.9 0-3.2-1.3-1.3-1.3-1.3-3.2 0-1.9 1.3-3.2 1.3-1.3 3.2-1.3 1.9 0 3.2 1.3 1.3 1.3 1.3 3.2 0 1.9-1.3 3.2-1.3 1.3-3.2 1.3Zm12.5 0q-1.9 0-3.2-1.3-1.3-1.3-1.3-3.2 0-1.9 1.3-3.2 1.3-1.3 3.2-1.3 1.9 0 3.2 1.3 1.3 1.3 1.3 3.2 0 1.9-1.3 3.2-1.3 1.3-3.2 1.3Zm9.25 8.5q-1.9 0-3.2-1.3-1.3-1.3-1.3-3.2 0-1.75 1.3-3.125t3.2-1.375q1.9 0 3.2 1.3 1.3 1.3 1.3 3.2 0 1.9-1.3 3.2-1.3 1.3-3.2 1.3Zm-26.2 20.5q-2.1 0-3.45-1.575T8.5 38.95q0-2.1 1.275-3.725T12.5 32.1q1.1-1.1 2.05-2.325.95-1.225 1.8-2.525 1.45-2.2 3.25-4.1 1.8-1.9 4.4-1.9 2.6 0 4.425 1.9 1.825 1.9 3.275 4.15.85 1.3 1.775 2.5.925 1.2 2.025 2.3 1.45 1.5 2.725 3.125Q39.5 36.85 39.5 38.95q0 2.15-1.35 3.725-1.35 1.575-3.45 1.575-2.7 0-5.35-.45-2.65-.45-5.35-.45-2.7 0-5.35.45-2.65.45-5.35.45Z"/></symbol><symbol id="qr_code" viewBox="0 0 48 48"><path d="M26 42v-4h4v4Zm-4-4V28h4v10Zm16-6v-8h4v8Zm-4-8v-4h4v4Zm-24 4v-4h4v4Zm-4-4v-4h4v4Zm18-14V6h4v4ZM8.5 15.5h7v-7h-7ZM6 18V6h12v12Zm2.5 21.5h7v-7h-7ZM6 42V30h12v12Zm26.5-26.5h7v-7h-7ZM30 18V6h12v12Zm4 24v-6h-4v-4h8v6h4v4Zm-8-14v-4h8v4Zm-8 0v-4h-4v-4h12v4h-4v4Zm2-10v-8h4v4h4v4Zm-9.5-4.5v-3h3v3Zm0 24v-3h3v3Zm24-24v-3h3v3Z"/></symbol><symbol id="rainy" viewBox="0 0 48 48"><path d="M27.9 43.85q-.55.25-1.175.05t-.875-.75l-3.45-6.9q-.25-.55-.075-1.175t.725-.875q.55-.25 1.175-.05t.875.75l3.45 6.9q.25.55.075 1.175t-.725.875Zm12-.05q-.55.25-1.175.05t-.875-.75l-3.45-6.9q-.25-.55-.075-1.175t.725-.875q.55-.25 1.175-.05t.875.75l3.45 6.9q.25.55.075 1.175t-.725.875Zm-24 0q-.55.25-1.175.075t-.875-.725l-3.45-6.9q-.25-.55-.05-1.175t.75-.875q.55-.25 1.175-.075t.875.725l3.45 6.95q.25.55.05 1.15-.2.6-.75.85ZM14.5 31q-4.35 0-7.425-3.075T4 20.5q0-3.95 2.825-7.05 2.825-3.1 7.025-3.4 1.6-2.8 4.225-4.425Q20.7 4 24 4q4.55 0 7.625 2.875T35.4 14q3.95.2 6.275 2.675Q44 19.15 44 22.5q0 3.5-2.475 6T35.5 31Zm0-3h21q2.3 0 3.9-1.625T41 22.5q0-2.3-1.6-3.9T35.5 17h-3v-1.5q0-3.55-2.475-6.025Q27.55 7 24 7q-2.55 0-4.675 1.375T16.2 12.1l-.4.9h-1.4q-3.1.1-5.25 2.275T7 20.5q0 3.1 2.2 5.3 2.2 2.2 5.3 2.2ZM24 17.5Z"/></symbol><symbol id="rocket" viewBox="0 0 48 48"><path d="m9.35 20.45 5.3 2.25q.9-1.8 1.925-3.55Q17.6 17.4 18.75 15.8L14.8 15Zm7.7 4.05 6.65 6.65q2.85-1.3 5.35-2.95 2.5-1.65 4.05-3.2 4.05-4.05 5.95-8.3 1.9-4.25 2.05-9.6-5.35.15-9.6 2.05t-8.3 5.95q-1.55 1.55-3.2 4.05-1.65 2.5-2.95 5.35Zm11.45-4.8q-1-1-1-2.475t1-2.475q1-1 2.475-1t2.475 1q1 1 1 2.475t-1 2.475q-1 1-2.475 1t-2.475-1Zm-.75 19.15 5.45-5.45-.8-3.95q-1.6 1.15-3.35 2.175T25.5 33.55Zm16.3-34.7q.45 6.8-1.7 12.4-2.15 5.6-7.1 10.55l-.1.1-.1.1 1.1 5.5q.15.75-.075 1.45-.225.7-.775 1.25l-8.55 8.6-4.25-9.9-8.5-8.5-9.9-4.25 8.6-8.55q.55-.55 1.25-.775.7-.225 1.45-.075l5.5 1.1q.05-.05.1-.075.05-.025.1-.075 4.95-4.95 10.55-7.125 5.6-2.175 12.4-1.725Zm-36.6 27.6Q9.2 30 11.725 29.975 14.25 29.95 16 31.7q1.75 1.75 1.725 4.275Q17.7 38.5 15.95 40.25q-1.3 1.3-4.025 2.15Q9.2 43.25 3.75 44q.75-5.45 1.575-8.2.825-2.75 2.125-4.05Zm2.1 2.15q-.7.75-1.25 2.35t-.95 4.1q2.5-.4 4.1-.95 1.6-.55 2.35-1.25.95-.85.975-2.125.025-1.275-.875-2.225-.95-.9-2.225-.875-1.275.025-2.125.975Z"/></symbol><symbol id="sailing" viewBox="0 0 48 48"><path d="M6.45 27 21.5 5.1V27Zm5.75-3h6.3v-9.35Zm13.5 3q.95-3 1.375-6.025.425-3.025.425-6.475 0-3.3-.425-6.425T25.7 2.1q2.35.95 5.05 3.325 2.7 2.375 5.05 5.725 2.35 3.35 3.95 7.425Q41.35 22.65 41.5 27Zm3.75-3h8.75q-.85-4.35-3.125-8.4Q32.8 11.55 30.1 8.9q.25 1.5.325 2.95.075 1.45.075 2.65 0 2.3-.325 4.95-.325 2.65-.725 4.55ZM18 38.2q-1.7 0-3.25-.925T12 34.95q-.7.7-1.675 1.375Q9.35 37 8.45 37.35q-1.45-.9-2.7-2.675Q4.5 32.9 4.1 31h39.8q-.4 1.9-1.65 3.675t-2.7 2.675q-.9-.35-1.875-1.025Q36.7 35.65 36 34.95q-1.2 1.4-2.75 2.325-1.55.925-3.25.925t-3.25-.925Q25.2 36.35 24 34.95q-1.2 1.4-2.75 2.325-1.55.925-3.25.925ZM4 46v-3h2q1.6 0 3.075-.525T12 40.55q1.45 1.4 2.95 1.925Q16.45 43 18 43q1.6 0 3.075-.525T24 40.55q1.45 1.4 2.95 1.925Q28.45 43 30 43q1.6 0 3.075-.525T36 40.55q1.45 1.4 2.925 1.925Q40.4 43 42 43h2v3h-2q-1.45 0-2.975-.425Q37.5 45.15 36 44q-1.5 1.15-3.025 1.575Q31.45 46 30 46q-1.45 0-2.975-.425Q25.5 45.15 24 44q-1.5 1.15-3.025 1.575Q19.45 46 18 46q-1.45 0-2.975-.425Q13.5 45.15 12 44q-1.5 1.15-3.025 1.575Q7.45 46 6 46Zm14.5-22Zm10.95 0Z"/></symbol><symbol id="settings" viewBox="0 0 48 48"><path d="m19.4 44-1-6.3q-.95-.35-2-.95t-1.85-1.25l-5.9 2.7L4 30l5.4-3.95q-.1-.45-.125-1.025Q9.25 24.45 9.25 24q0-.45.025-1.025T9.4 21.95L4 18l4.65-8.2 5.9 2.7q.8-.65 1.85-1.25t2-.9l1-6.35h9.2l1 6.3q.95.35 2.025.925Q32.7 11.8 33.45 12.5l5.9-2.7L44 18l-5.4 3.85q.1.5.125 1.075.025.575.025 1.075t-.025 1.05q-.025.55-.125 1.05L44 30l-4.65 8.2-5.9-2.7q-.8.65-1.825 1.275-1.025.625-2.025.925l-1 6.3ZM24 30.5q2.7 0 4.6-1.9 1.9-1.9 1.9-4.6 0-2.7-1.9-4.6-1.9-1.9-4.6-1.9-2.7 0-4.6 1.9-1.9 1.9-1.9 4.6 0 2.7 1.9 4.6 1.9 1.9 4.6 1.9Zm0-3q-1.45 0-2.475-1.025Q20.5 25.45 20.5 24q0-1.45 1.025-2.475Q22.55 20.5 24 20.5q1.45 0 2.475 1.025Q27.5 22.55 27.5 24q0 1.45-1.025 2.475Q25.45 27.5 24 27.5Zm0-3.5Zm-2.2 17h4.4l.7-5.6q1.65-.4 3.125-1.25T32.7 32.1l5.3 2.3 2-3.6-4.7-3.45q.2-.85.325-1.675.125-.825.125-1.675 0-.85-.1-1.675-.1-.825-.35-1.675L40 17.2l-2-3.6-5.3 2.3q-1.15-1.3-2.6-2.175-1.45-.875-3.2-1.125L26.2 7h-4.4l-.7 5.6q-1.7.35-3.175 1.2-1.475.85-2.625 2.1L10 13.6l-2 3.6 4.7 3.45q-.2.85-.325 1.675-.125.825-.125 1.675 0 .85.125 1.675.125.825.325 1.675L8 30.8l2 3.6 5.3-2.3q1.2 1.2 2.675 2.05Q19.45 35 21.1 35.4Z"/></symbol><symbol id="shopping_cart" viewBox="0 0 48 48"><path d="M14.35 43.95q-1.5 0-2.55-1.05-1.05-1.05-1.05-2.55 0-1.5 1.05-2.55 1.05-1.05 2.55-1.05 1.45 0 2.525 1.05t1.075 2.55q0 1.5-1.05 2.55-1.05 1.05-2.55 1.05Zm20 0q-1.5 0-2.55-1.05-1.05-1.05-1.05-2.55 0-1.5 1.05-2.55 1.05-1.05 2.55-1.05 1.45 0 2.525 1.05t1.075 2.55q0 1.5-1.05 2.55-1.05 1.05-2.55 1.05Zm-22.6-33 5.5 11.4h14.4l6.25-11.4Zm-1.5-3H39.7q1.6 0 2.025.975.425.975-.275 2.175L34.7 23.25q-.5.85-1.4 1.475-.9.625-1.95.625H16.2l-2.8 5.2h24.55v3h-24.1q-2.1 0-3.025-1.4-.925-1.4.025-3.15l3.2-5.9L6.45 7h-3.9V4H8.4Zm7 14.4h14.4Z"/></symbol><symbol id="smile" viewBox="0 0 48 48"><path d="M31.3 21.35q1.15 0 1.925-.775Q34 19.8 34 18.65t-.775-1.925q-.775-.775-1.925-.775t-1.925.775q-.775.775-.775 1.925t.775 1.925q.775.775 1.925.775Zm-14.6 0q1.15 0 1.925-.775.775-.775.775-1.925t-.775-1.925q-.775-.775-1.925-.775t-1.925.775Q14 17.5 14 18.65t.775 1.925q.775.775 1.925.775Zm7.3 13.6q3.3 0 6.075-1.775Q32.85 31.4 34.1 28.35h-2.6q-1.15 2-3.15 3.075-2 1.075-4.3 1.075-2.35 0-4.375-1.05t-3.125-3.1H13.9q1.3 3.05 4.05 4.825Q20.7 34.95 24 34.95ZM24 44q-4.1 0-7.75-1.575-3.65-1.575-6.375-4.3-2.725-2.725-4.3-6.375Q4 28.1 4 23.95q0-4.1 1.575-7.75 1.575-3.65 4.3-6.35 2.725-2.7 6.375-4.275Q19.9 4 24.05 4q4.1 0 7.75 1.575 3.65 1.575 6.35 4.275 2.7 2.7 4.275 6.35Q44 19.85 44 24q0 4.1-1.575 7.75-1.575 3.65-4.275 6.375t-6.35 4.3Q28.15 44 24 44Zm0-20Zm0 17q7.1 0 12.05-4.975Q41 31.05 41 24q0-7.1-4.95-12.05Q31.1 7 24 7q-7.05 0-12.025 4.95Q7 16.9 7 24q0 7.05 4.975 12.025Q16.95 41 24 41Z"/></symbol><symbol id="star" viewBox="0 0 48 48"><path d="m11.65 44 4.65-15.2L4 20h15.2L24 4l4.8 16H44l-12.3 8.8L36.35 44 24 34.6Z"/></symbol><symbol id="sun" viewBox="0 0 48 48"><path d="M24 9.5q-.65 0-1.075-.425Q22.5 8.65 22.5 8V3.5q0-.65.425-1.075Q23.35 2 24 2q.65 0 1.075.425.425.425.425 1.075V8q0 .65-.425 1.075Q24.65 9.5 24 9.5Zm10.25 4.25q-.45-.45-.45-1.05 0-.6.45-1.05l3.15-3.2Q37.85 8 38.475 8t1.075.45Q40 8.9 40 9.5q0 .6-.45 1.05l-3.2 3.2q-.45.45-1.05.45-.6 0-1.05-.45ZM40 25.5q-.65 0-1.075-.425Q38.5 24.65 38.5 24q0-.65.425-1.075Q39.35 22.5 40 22.5h4.5q.65 0 1.075.425Q46 23.35 46 24q0 .65-.425 1.075-.425.425-1.075.425ZM24 46q-.65 0-1.075-.425-.425-.425-.425-1.075V40q0-.65.425-1.075Q23.35 38.5 24 38.5q.65 0 1.075.425.425.425.425 1.075v4.5q0 .65-.425 1.075Q24.65 46 24 46ZM11.65 13.75l-3.2-3.15Q8 10.15 8 9.525t.45-1.075Q8.9 8 9.5 8q.6 0 1.05.45l3.2 3.2q.45.45.45 1.05 0 .6-.45 1.05-.45.4-1.075.4t-1.025-.4Zm25.8 25.8-3.2-3.2q-.45-.45-.45-1.05 0-.6.45-1.05.4-.4 1.025-.4.625 0 1.075.4l3.25 3.15q.45.45.425 1.075Q40 39.1 39.6 39.55q-.45.45-1.075.45t-1.075-.45ZM3.5 25.5q-.65 0-1.075-.425Q2 24.65 2 24q0-.65.425-1.075Q2.85 22.5 3.5 22.5H8q.65 0 1.075.425Q9.5 23.35 9.5 24q0 .65-.425 1.075Q8.65 25.5 8 25.5Zm4.95 14.05Q8 39.1 8 38.5q0-.6.45-1.05l3.2-3.2q.4-.4 1.025-.4.625 0 1.075.4.45.45.45 1.075t-.45 1.075l-3.15 3.15q-.45.45-1.075.45t-1.075-.45ZM24 36q-5 0-8.5-3.5T12 24q0-5 3.5-8.5T24 12q5 0 8.5 3.5T36 24q0 5-3.5 8.5T24 36Zm0-3q3.75 0 6.375-2.625T33 24q0-3.75-2.625-6.375T24 15q-3.75 0-6.375 2.625T15 24q0 3.75 2.625 6.375T24 33Z"/></symbol><symbol id="water" viewBox="0 0 48 48"><path d="M24 44q-6.35 0-11.175-4.425Q8 35.15 8 27.6q0-5 3.975-10.875T24 4q8.05 6.85 12.025 12.725Q40 22.6 40 27.6q0 7.55-4.825 11.975T24 44Zm0-3q5.5 0 9.25-3.8T37 27.6q0-3.95-3.325-8.975Q30.35 13.6 24 8q-6.35 5.6-9.675 10.625Q11 23.65 11 27.6q0 5.8 3.75 9.6T24 41Zm0-11.55Zm-.05 8.15q.8 0 1.225-.275.425-.275.425-.825 0-.55-.425-.85-.425-.3-1.275-.3-2.1 0-4.275-1.325Q17.45 32.7 16.85 29.35q-.1-.45-.45-.725-.35-.275-.75-.275-.55 0-.85.425-.3.425-.2.875.75 4.2 3.55 6.075t5.8 1.875Z"/></symbol><symbol id="work" viewBox="0 0 48 48"><path d="M7 42q-1.2 0-2.1-.9Q4 40.2 4 39V14.35q0-1.2.9-2.1.9-.9 2.1-.9h9.5V7q0-1.2.9-2.1.9-.9 2.1-.9h9q1.2 0 2.1.9.9.9.9 2.1v4.35H41q1.2 0 2.1.9.9.9.9 2.1V39q0 1.2-.9 2.1-.9.9-2.1.9Zm12.5-30.65h9V7h-9ZM7 39h34V14.35H7V39Zm0 0V14.35 39Z"/></symbol></svg>